# xmcd CD database file
#
# Track frame offsets:
#	182
#	13255
#	25005
#	54280
#	64352
#	80922
#	95062
#	104050
#	114932
#	127775
#	146817
#	160330
#	169970
#	183657
#	200027
#	217575
#	239767
#
# Disc length: 3495 seconds
#
# Revision: 0
# Processed by: cddbd v1.5PL3 Copyright (c) Steve Scherf et al.
# Submitted via: CDex 1.51
#
DISCID=fc0da511
DTITLE=Ray Charles - Genious And Soul (Selections From The Box Set)
DYEAR=1997
DGENRE=Rhythmic Soul
TTITLE0=I've Got A Woman
TTITLE1=Hallelujah I Love Her So
TTITLE2=What'd I Say Parts 1 and 2
TTITLE3=Sticks And Stones
TTITLE4=Georgia On My Mind
TTITLE5=One Mint Julep
TTITLE6=Hit The Road Jack
TTITLE7=The Danger Zone
TTITLE8=Unchain My Heart
TTITLE9=I Can't Stop Loving You
TTITLE10=You Are My Sunshine
TTITLE11=Busted
TTITLE12=Lets Go Get Stoned
TTITLE13=America The Beautiful
TTITLE14=Seven Spanish Angels
TTITLE15=I'll Be Good To You
TTITLE16=Still Crazy After All These Years
EXTD=YEAR: 1997
EXTT0=
EXTT1=
EXTT2=
EXTT3=
EXTT4=
EXTT5=
EXTT6=
EXTT7=
EXTT8=
EXTT9=
EXTT10=
EXTT11=
EXTT12=
EXTT13=
EXTT14=
EXTT15=
EXTT16=
PLAYORDER=
